<svg xmlns="http://www.w3.org/2000/svg" width="1600" height="900" viewBox="0 0 1600 900" role="img" aria-labelledby="title desc"><title id="title">Preview do LeadHunter Pro</title><desc id="desc">Sistema operacional comercial com prospecção, CRM 360, funil e agente SDR.</desc><defs><linearGradient id="bg" x1="0" y1="0" x2="1" y2="1"><stop stop-color="#06101d"/><stop offset=".56" stop-color="#0a2543"/><stop offset="1" stop-color="#06101b"/></linearGradient><linearGradient id="blue" x1="0" y1="0" x2="1" y2="1"><stop stop-color="#39a9ff"/><stop offset="1" stop-color="#22e0a1"/></linearGradient><filter id="sh"><feDropShadow dx="0" dy="22" stdDeviation="27" flood-color="#000" flood-opacity=".5"/></filter></defs><rect width="1600" height="900" fill="url(#bg)"/><circle cx="1370" cy="150" r="310" fill="#39a9ff" opacity=".08"/><circle cx="180" cy="850" r="290" fill="#22e0a1" opacity=".06"/><g font-family="Inter,Arial,sans-serif"><text x="92" y="92" fill="#67c5ff" font-size="28" font-weight="900">LEADHUNTER PRO</text><rect x="92" y="140" width="292" height="44" rx="22" fill="#39a9ff" opacity=".1" stroke="#39a9ff"/><text x="116" y="170" fill="#9ad9ff" font-size="18" font-weight="800">PROSPECÇÃO • CRM • AGENTE SDR</text><text x="92" y="296" fill="#fff" font-size="80" font-weight="900">Encontre a dor.</text><text x="92" y="386" fill="url(#blue)" font-size="80" font-weight="900">Converta a oportunidade.</text><text x="96" y="448" fill="#c2d3e2" font-size="25">Da auditoria digital ao fechamento: score, abordagem,</text><text x="96" y="484" fill="#c2d3e2" font-size="25">follow-up, conversas e receita em um CRM 360.</text><g transform="translate(94 548)"><rect width="190" height="54" rx="27" fill="url(#blue)"/><text x="34" y="35" fill="#06131d" font-size="18" font-weight="900">BUSCAR LEADS</text><rect x="210" width="150" height="54" rx="27" fill="#fff" opacity=".07" stroke="#39a9ff"/><text x="244" y="35" fill="#fff" font-size="18" font-weight="800">CRM 360</text></g><g transform="translate(820 100)" filter="url(#sh)"><rect width="695" height="675" rx="36" fill="#f5f8fb"/><rect width="695" height="72" rx="36" fill="#0a1c31"/><circle cx="38" cy="36" r="8" fill="#39a9ff"/><circle cx="64" cy="36" r="8" fill="#22e0a1"/><circle cx="90" cy="36" r="8" fill="#ffd166"/><text x="128" y="44" fill="#fff" font-size="20" font-weight="900">Central de Inteligência Comercial</text><rect x="34" y="103" width="190" height="112" rx="22" fill="#fff" stroke="#dce5ed"/><text x="55" y="135" fill="#6b7d8e" font-size="15">Leads qualificados</text><text x="55" y="180" fill="#0a2543" font-size="34" font-weight="900">148</text><rect x="244" y="103" width="190" height="112" rx="22" fill="#fff" stroke="#dce5ed"/><text x="265" y="135" fill="#6b7d8e" font-size="15">Pipeline</text><text x="265" y="180" fill="#0a2543" font-size="31" font-weight="900">R$ 92.600</text><rect x="454" y="103" width="207" height="112" rx="22" fill="#fff" stroke="#dce5ed"/><text x="475" y="135" fill="#6b7d8e" font-size="15">Conversão</text><text x="475" y="180" fill="#0a2543" font-size="34" font-weight="900">24,8%</text><rect x="34" y="244" width="418" height="262" rx="24" fill="#fff" stroke="#dce5ed"/><text x="58" y="280" fill="#0a2543" font-size="19" font-weight="900">Funil comercial</text><g transform="translate(64 310)"><path d="M0 0h340l-38 44H38Z" fill="#39a9ff"/><path d="M42 56h256l-36 44H78Z" fill="#2fbcd2"/><path d="M82 112h176l-34 44H116Z" fill="#27cbb8"/><path d="M122 168h96l-28 44h-40Z" fill="#22e0a1"/></g><g fill="#0b2943" font-size="14" font-weight="800"><text x="82" y="338">DESCOBERTOS 420</text><text x="122" y="394">QUALIFICADOS 148</text><text x="157" y="450">PROPOSTAS 62</text><text x="191" y="505">CLIENTES 28</text></g><rect x="478" y="244" width="183" height="262" rx="24" fill="#0a2543"/><text x="502" y="280" fill="#9ad9ff" font-size="18" font-weight="900">Agente SDR</text><circle cx="570" cy="362" r="57" fill="#39a9ff" opacity=".13" stroke="#39a9ff" stroke-width="3"/><text x="545" y="375" fill="#67c5ff" font-size="34" font-weight="900">IA</text><text x="510" y="446" fill="#d3e3ef" font-size="15">Lead qualificado</text><rect x="503" y="466" width="134" height="38" rx="19" fill="#22e0a1"/><text x="529" y="491" fill="#062018" font-size="13" font-weight="900">TRANSFERIR</text><rect x="34" y="535" width="627" height="98" rx="22" fill="url(#blue)"/><text x="58" y="570" fill="#06131d" font-size="16" font-weight="900">PLANO DE AÇÃO</text><text x="58" y="604" fill="#06131d" font-size="22" font-weight="900">Priorizar 12 leads sem avanço e agendar follow-up</text></g><text x="92" y="824" fill="#8299ac" font-size="19">React • Node.js • Express • MongoDB • JWT • IA • CRM omnichannel</text></g></svg>